<?xml version="1.0" encoding="UTF-8"?>
<!-- Generator: visioncortex VTracer 0.6.12 -->
<svg version="1.1" xmlns="http://www.w3.org/2000/svg" width="513" height="427">
<path d="M0 0 C0.8797448730468886 -0.0028701782226558947 1.7594897460937489 -0.0057403564453117895 2.6658935546875 -0.008697509765625 C4.514736417037682 -0.01072717757858399 6.363601294936217 -0.005274635155947394 8.21240234375 0.00732421875 C11.023605832384021 0.02339380390934842 13.83337185702257 0.007438198510591576 16.64453125 -0.01171875 C18.45052396955586 -0.00973612326196438 20.25651580358479 -0.00589204514833952 22.0625 0 C22.89293823242187 -0.006072692871093466 23.72337646484374 -0.012145385742186932 24.5789794921875 -0.018402099609375 C32.338981350627364 0.07396950610376152 38.616905903436134 1.8629981055158176 44.158203125 7.537109375 C44.631933593750006 8.048222656250001 45.10566406250001 8.559335937500002 45.59375 9.0859375 C45.832548828125 9.331826171875 45.832548828125 9.331826171875 47.041015625 10.576171875 C49.712338904418544 13.354490746384567 52.25570656972013 16.228562154351202 54.769287109375 19.149658203125 C58.27400926503597 23.161202702809433 61.95933753189294 26.93976094693616 65.75 30.6796875 C66.41157104492189 31.337471923828126 67.07314208984374 31.99525634765625 67.7547607421875 32.6729736328125 C69.84447734844736 34.7506102398148 71.93742314968199 36.82494376591629 74.03125 38.8984375 C76.79466699929938 41.63501900473972 79.5545872207307 44.37506013151138 82.3125 47.1171875 C82.93249877929688 47.728887939453124 83.55249755859376 48.34058837890625 84.1912841796875 48.9708251953125 C87.92973780424464 52.68861184776597 91.44056605304147 56.539879881846446 94.8868408203125 60.5291748046875 C97.15797145861882 63.11085570917747 99.55212634388951 65.51399918049286 102 67.9296875 C102.48400268554687 68.40990356445313 102.96800537109374 68.89011962890625 103.4666748046875 69.3848876953125 C104.98572309041734 70.89193156752717 106.50801687955376 72.3956243575489 108.03125 73.8984375 C113.80256684393254 79.59238590874416 119.51469573386802 85.26194977449086 124.78369140625 91.4326171875 C129.08406501687534 96.27008691546246 133.84076467662896 100.70018601581155 138.474609375 105.21484375 C139.25513671875 105.9844140625 140.03566406250002 106.753984375 140.83984375 107.546875 C141.19461791992188 107.89322998046876 141.19461791992188 107.89322998046876 142.989990234375 109.64599609375 C144.53125 111.39843749999997 144.53125 111.39843749999997 144.53125 113.3984375 C145.52125 113.7284375 146.51125000000002 114.0584375 147.53125 114.3984375 C149.0412597656249 115.93408203124984 149.0412597656249 115.93408203124984 150.66015625 117.90625 C155.37974120794337 123.47141174204216 160.60348447714318 128.48638021722115 165.830078125 133.5703125 C166.56548828125 134.294765625 167.3008984375 135.01921875 168.05859375 135.765625 C168.39242065429687 136.09103271484375 168.39242065429687 136.09103271484375 170.081787109375 137.73779296875 C171.53125 139.39843750000003 171.53125 139.39843750000003 171.53125 141.3984375 C172.52125 141.7284375 173.51125000000002 142.0584375 174.53125 142.3984375 C177.0831295088696 144.87926699934192 179.26930690559573 147.65469038324505 181.53125 150.3984375 C181.7877734375 150.65947265625 181.7877734375 150.65947265625 183.0859375 151.98046875 C184.34375 153.39843750000003 184.34375 153.39843750000003 185.53125 156.3984375 C182.0381805629333 163.35453277232372 175.20694857579662 168.9223400241287 169.71875 174.2734375 C168.00174348802358 175.95612930004202 166.2867879493274 177.64091730869072 164.57421875 179.328125 C163.82164794921874 180.0627294921875 163.0690771484375 180.797333984375 162.293701171875 181.55419921875 C160.53124999999994 183.39843750000006 160.53124999999994 183.39843750000006 159.53125 185.3984375 C158.87124999999997 185.3984375 158.21125 185.3984375 157.53125 185.3984375 C157.53125 186.0584375 157.53125 186.7184375 157.53125 187.3984375 C155.76953124999994 188.2109375 155.76953124999994 188.2109375 153.53125 188.3984375 C151.63671874999994 187.21093749999997 151.63671874999994 187.21093749999997 149.71875 185.3984375 C149.37070312499998 185.07294921875 149.37070312499998 185.07294921875 147.609375 183.42578125 C146.92359375 182.7567578125 146.23781250000002 182.087734375 145.53125 181.3984375 C145.229609375 181.11033203124998 145.229609375 181.11033203124998 143.703125 179.65234375 C140.7987097630749 176.81988474642216 138.06927893128085 173.890742258242 135.44140625 170.80078125 C131.04720642339566 165.75502965843592 126.29563484683297 161.09171212523842 121.53125 156.3984375 C116.2492614828098 151.19528463232012 111.09425191389354 145.98508215047477 106.26904296875 140.3544921875 C102.3744566168088 135.97075717039507 98.08197441273941 131.95385450690645 93.876953125 127.87109375 C93.18666015625001 127.19175781249999 92.4963671875 126.512421875 91.78515625 125.8125 C91.47227661132814 125.50803955078123 91.47227661132814 125.50803955078123 89.888916015625 123.96728515625 C88.53125 122.3984375 88.53125 122.3984375 88.53125 120.3984375 C87.87125 120.06843750000002 87.21125 119.7384375 86.53125 119.3984375 C85.87125 119.06843750000002 85.21125 118.7384375 84.53125 118.3984375 C84.53125 117.7384375 84.53125 117.0784375 84.53125 116.3984375 C83.87125 116.3984375 83.21125 116.3984375 82.53125 116.3984375 C81.19140624999994 115.03515624999996 81.19140624999994 115.03515624999996 79.59375 113.0859375 C75.99435109771431 108.8230900712337 72.1125701999556 104.93688140490313 68.088134765625 101.080810546875 C66.86634285822777 99.88934453544881 65.69409669156423 98.64749886489899 64.53125 97.3984375 C64.53125 96.7384375 64.53125 96.0784375 64.53125 95.3984375 C63.87125 95.3984375 63.21125000000001 95.3984375 62.53125 95.3984375 C61.154052734375085 93.99560546875009 61.154052734375085 93.99560546875009 59.52734375 92.015625 C54.373524013251966 85.95183605383393 48.635037693235574 80.4907660967899 42.943359375 74.9375 C42.11771484375001 74.1228125 41.29207031249999 73.308125 40.44140625 72.46875 C39.68996337890624 71.7341455078125 38.93852050781251 70.999541015625 38.164306640625 70.24267578125 C36.53125 68.39843749999999 36.53125 68.39843749999999 36.53125 66.3984375 C35.87125 66.3984375 35.21125000000001 66.3984375 34.53125 66.3984375 C33.33203125 65.17578124999999 33.33203125 65.17578124999999 31.84375 63.3359375 C28.022058062579077 58.84078392604843 23.93544444409693 54.64590007879218 19.78125 50.4609375 C19.119074707031245 49.78603271484375 18.45689941406249 49.1111279296875 17.774658203125 48.415771484375 C17.142614746093756 47.78227783203125 16.51057128906251 47.1487841796875 15.859375 46.49609375 C15.291220703124992 45.92383056640625 14.723066406250013 45.3515673828125 14.1376953125 44.761962890625 C12.53125 43.3984375 12.53125 43.3984375 9.53125 42.3984375 C7.159179687499972 44.52270507812503 7.159179687499972 44.52270507812503 4.53125 47.3984375 C2.8494341644719725 49.06948944922344 1.1671263344096872 50.740046352963674 -0.515625 52.41015625 C-1.9316280676906104 53.81926639594247 -3.3476238524332302 55.22838395231261 -4.76318359375 56.637939453125 C-5.739846501693819 57.60952410710266 -6.717397550204723 58.58021673282278 -7.69580078125 59.550048828125 C-9.117241133211692 60.959402908337765 -10.53523823075247 62.37222712679879 -11.953125 63.78515625 C-12.795849609374997 64.62264404296874 -13.638574218749994 65.4601318359375 -14.5068359375 66.322998046875 C-16.46875 68.3984375 -16.46875 68.3984375 -17.46875 70.3984375 C-18.128749999999997 70.3984375 -18.788749999999993 70.3984375 -19.46875 70.3984375 C-20.152716993260526 71.7229794488836 -20.816326802863088 73.05807702831342 -21.46875 74.3984375 C-22.96508789062497 76.10595703124997 -22.96508789062497 76.10595703124997 -24.69140625 77.78125 C-25.001748046875008 78.08611328125 -25.001748046875008 78.08611328125 -26.572265625 79.62890625 C-27.218730468749996 80.2541015625 -27.865195312500006 80.879296875 -28.53125 81.5234375 C-29.815989296201238 82.77379824218991 -31.098646812345848 84.02630266361061 -32.37890625 85.28125 C-32.94746337890625 85.8318408203125 -33.5160205078125 86.382431640625 -34.101806640625 86.94970703125 C-35.468750000000014 88.39843750000001 -35.468750000000014 88.39843750000001 -36.46875 90.3984375 C-37.12875 90.3984375 -37.78874999999999 90.3984375 -38.46875 90.3984375 C-38.46875 91.0584375 -38.46875 91.7184375 -38.46875 92.3984375 C-39.12875 92.3984375 -39.78874999999999 92.3984375 -40.46875 92.3984375 C-40.75749999999999 93.0171875 -41.04625 93.6359375 -41.34375 94.2734375 C-42.71911696967112 96.87135288715656 -43.90401185198763 97.11606842599382 -46.46875 98.3984375 C-46.73743896484375 98.97392333984375 -47.006127929687494 99.5494091796875 -47.282958984375 100.142333984375 C-48.86897607340988 103.15991354372674 -51.001490490194655 105.11874550322322 -53.44140625 107.49609375 C-53.924517669677726 107.97163192749024 -54.40762908935547 108.44717010498047 -54.90538024902344 108.93711853027344 C-56.44259498926627 110.44998651934506 -57.98607500293892 111.95620328803102 -59.53125 113.4609375 C-61.569546007734715 115.44606882378822 -63.601158174802976 117.43769567537838 -65.62890625 119.43359375 C-66.53261962890625 120.31410400390627 -67.4363330078125 121.1946142578125 -68.367431640625 122.101806640625 C-70.46875 124.3984375 -70.46875 124.3984375 -71.46875 127.3984375 C-70.46875 130.3984375 -70.46875 130.3984375 -68.671875 131.3359375 C-67.94484374999999 131.6865625 -67.21781250000001 132.0371875 -66.46875 132.3984375 C-65.00532192290525 133.6802723120538 -63.5892957075975 135.01773960197585 -62.21875 136.3984375 C-61.51234375 137.0996875 -60.8059375 137.8009375 -60.078125 138.5234375 C-58.46875 140.3984375 -58.46875 140.3984375 -58.46875 142.3984375 C-57.80875 142.3984375 -57.14875000000001 142.3984375 -56.46875 142.3984375 C-54.34375000000003 144.27343749999997 -54.34375000000003 144.27343749999997 -52.46875 146.3984375 C-52.46875 147.0584375 -52.46875 147.7184375 -52.46875 148.3984375 C-51.911874999999995 148.6459375 -51.355000000000004 148.8934375 -50.78125 149.1484375 C-47.4073714590084 150.97215563026575 -45.62343976064355 153.2587467059194 -43.46875 156.3984375 C-43.53917482906675 160.53460794860356 -45.24569505417563 162.63043441794238 -48.11297607421875 165.495849609375 C-48.61710021972657 165.97932861328124 -49.12122436523437 166.4628076171875 -49.640625 166.9609375 C-50.16005676269532 167.47470947265626 -50.679488525390624 167.9884814453125 -51.21466064453125 168.517822265625 C-52.87350670282612 170.1543564684282 -54.54568699738408 171.77645303375425 -56.21875 173.3984375 C-57.32904292805168 174.48864928407875 -58.43842801906601 175.5797864455851 -59.546875 176.671875 C-61.59696355822503 178.6894005789207 -63.652281429593245 180.7012581571614 -65.7138671875 182.70703125 C-67.56262925437537 184.51319511256946 -69.3508354359048 186.38330621449842 -71.0751953125 188.30859375 C-71.865068359375 188.9982421875 -72.65494140625 189.687890625 -73.46875 190.3984375 C-76.89094908710067 190.0897941189135 -78.58948829041492 188.65259098003727 -80.964599609375 186.27490234375 C-81.62886459350585 185.61686614990234 -82.29312957763672 184.9588299560547 -82.97752380371094 184.28085327148438 C-83.68490188598633 183.56426544189452 -84.39227996826172 182.8476776123047 -85.12109375 182.109375 C-85.85824111938476 181.3727261352539 -86.59538848876953 180.63607727050783 -87.35487365722656 179.87710571289063 C-88.9142594049523 178.3153789322449 -90.46995154619776 176.74995667799192 -92.022216796875 175.18115234375 C-94.38503959389232 172.7948585983138 -96.7607624846656 170.42203121148478 -99.138671875 168.05078125 C-100.65443763111787 166.52943431597095 -102.16943648568329 165.00732283233575 -103.68359375 163.484375 C-104.03627067565918 163.13215377807617 -104.03627067565918 163.13215377807617 -105.82102966308594 161.34970092773438 C-116.53210825001466 150.48564733786284 -117.64085605944679 142.58167450315625 -117.59375 127.5234375 C-117.59761718749999 126.29496093749998 -117.601484375 125.06648437500002 -117.60546875 123.80078125 C-117.58595146498193 105.5911543281394 -117.58595146498193 105.5911543281394 -114.46875 100.3984375 C-113.03540039062497 98.98413085937497 -113.03540039062497 98.98413085937497 -111.25390625 97.55078125 C-105.12036535468286 92.35575101300492 -99.52989060439279 86.60850982486544 -93.859619140625 80.919677734375 C-91.91078130476635 78.96548126429703 -89.95665728007276 77.01668602875115 -88.001953125 75.068359375 C-86.73926262260488 73.80500796160003 -85.47688241511813 72.54134632370206 -84.21484375 71.27734375 C-83.64172958374024 70.70625381469726 -83.06861541748046 70.13516387939453 -82.47813415527344 69.54676818847656 C-79.5757509016594 66.62787838984374 -76.79324416297888 63.65313976759265 -74.107666015625 60.532958984375 C-70.11845315632631 55.9255274059968 -65.83019576435615 51.65218334910622 -61.5 47.3671875 C-60.66086059570313 46.53183471679687 -59.821721191406255 45.69648193359375 -58.9571533203125 44.8358154296875 C-55.4002047982985 41.29507620575104 -51.837288804827764 37.76036426389922 -48.27490234375 34.22509765625 C-45.660348355807415 31.62871689888027 -43.04886815579222 29.02927184288624 -40.4375 26.4296875 C-39.64251098632812 25.642996826171874 -38.84752197265625 24.85630615234375 -38.0284423828125 24.0457763671875 C-33.84900869709858 19.884563403586856 -29.83940100997789 15.650030261002993 -26.0203857421875 11.1544189453125 C-18.658383228136486 2.822863114565598 -10.985478071440937 -0.08033280714381341 0 0 Z " fill="#000000" transform="translate(133.46875,9.6015625)"/>
<path d="M0 0 C0.9265086364746367 -0.001455230712890554 1.8530172729492165 -0.002910461425781108 2.8076019287109375 -0.0044097900390625 C4.754823446224009 -0.002758811497285407 6.702059109561219 0.008711983799104317 8.649169921875 0.029541015625 C11.616290339081502 0.05854679313650735 14.581626082562707 0.050122342169977685 17.548828125 0.037109375 C19.449227361336 0.04334649444409955 21.349621005734946 0.051737227050743684 23.25 0.0625 C24.129347076416025 0.05956436157226541 25.00869415283205 0.056628723144530824 25.914688110351563 0.0536041259765625 C33.10958788355822 0.16295913565289943 38.59511113780087 1.726425259190016 44.05859375 6.68359375 C44.65671874999998 7.2133984375 45.254843749999964 7.743203125000001 45.87109375 8.2890625 C47.65906756611787 10.093000368047463 49.28016072399532 11.915423307520186 50.921875 13.84765625 C56.66094982332527 20.472315171829802 63.019153451885586 26.523294168542726 69.24609375 32.68359375 C71.76335655983593 35.17414145231524 74.27719840393729 37.66807129621929 76.7890625 40.1640625 C77.07399314880371 40.444843978881835 77.07399314880371 40.444843978881835 78.51591491699219 41.86576843261719 C81.5971463187326 44.92807055106243 84.38227370051004 48.064093413148726 87.05859375 51.49609375 C88.76171875 53.007812500000014 88.76171875 53.007812500000014 90.30859375 54.18359375 C91.21609375000003 54.94671875 92.12359375 55.709843750000005 93.05859375 56.49609375 C93.05859375 57.15609375 93.05859375 57.81609374999999 93.05859375 58.49609375 C93.71859374999997 58.49609375 94.37859375 58.49609375 95.05859375 58.49609375 C96.53782653808582 59.9940948486327 96.53782653808582 59.9940948486327 98.243896484375 62.048095703125 C101.69594080324327 66.10539426149784 105.32207326085495 69.90508362655075 109.09375 73.6640625 C109.41462333679198 73.98541419982911 109.41462333679198 73.98541419982911 111.03843688964844 75.61164855957031 C112.38255173219318 76.95643803027853 113.7279065748549 78.29998920044781 115.074462890625 79.642333984375 C117.12306815228317 81.68556297074313 119.16625337735707 83.73410313755744 121.208984375 85.783203125 C122.52441894370043 87.09797712898182 123.84016355324792 88.41244102511496 125.15625 89.7265625 C125.75953628540037 90.33187301635742 126.36282257080074 90.93718353271484 126.98439025878906 91.56083679199219 C129.67806738936758 94.23981298289392 132.34002064544342 96.74307087265278 135.364990234375 99.044189453125 C139.52373066603127 102.82976274734453 139.9525844194393 105.96513055567155 140.333251953125 111.462646484375 C140.35302606138185 112.95155431342427 140.36116917700645 114.44064944820602 140.359375 115.9296875 C140.3636601257324 116.72584976196289 140.36794525146485 117.52201202392578 140.3723602294922 118.34230041503906 C140.37807933034617 120.01896212769873 140.37862171652546 121.6956486401819 140.374267578125 123.372314453125 C140.37110753084778 125.92247260586339 140.39459629879832 128.47146931880718 140.419921875 131.021484375 C140.42219528811972 132.65755063334626 140.4228981687604 134.29361998206804 140.421875 135.9296875 C140.43108474731446 136.68406600952147 140.44029449462892 137.43844451904297 140.4497833251953 138.21568298339844 C140.3938837238644 144.6850789624834 139.0235917895494 149.38731536609333 134.49609375 154.24609375 C133.69171875 154.98859375 132.88734375 155.73109375 132.05859375 156.49609375 C131.39859375000003 157.48609375 130.73859375 158.47609375 130.05859375 159.49609375 C129.39859375000003 159.49609375 128.73859375 159.49609375 128.05859375 159.49609375 C128.05859375 160.15609375 128.05859375 160.81609375 128.05859375 161.49609375 C127.39859375000003 161.49609375 126.73859375 161.49609375 126.05859375 161.49609375 C125.39072635593993 162.82882604351346 124.72434059915173 164.16230090436514 124.05859375 165.49609375 C122.7423394688592 166.96151087054687 121.36976665323164 168.37725339367856 119.9609375 169.75390625 C119.560361328125 170.14900390625002 119.560361328125 170.14900390625002 117.533203125 172.1484375 C116.69595703125003 172.9644140625 115.8587109375 173.780390625 114.99609375 174.62109375 C113.33636752654695 176.24648081020922 111.67870627831167 177.8739800234916 110.0234375 179.50390625 C109.28730224609376 180.2220751953125 108.55116699218752 180.940244140625 107.792724609375 181.68017578125 C106.05859375 183.49609375000003 106.05859375 183.49609375000003 105.05859375 185.49609375 C104.39859375000003 185.49609375 103.73859375 185.49609375 103.05859375 185.49609375 C103.05859375 186.15609375 103.05859375 186.81609375 103.05859375 187.49609375 C102.39859375000003 187.49609375 101.73859375 187.49609375 101.05859375 187.49609375 C101.05859375 188.15609375 101.05859375 188.81609375 101.05859375 189.49609375 C100.39859375000003 189.49609375 99.73859375 189.49609375 99.05859375 189.49609375 C98.91828735351561 189.7787609863281 98.91828735351561 189.7787609863281 98.208251953125 191.209228515625 C96.77452272994026 194.06115920867475 94.93519058171069 195.84470781328906 92.6640625 198.0859375 C91.79072265625001 198.95283203125 90.91738281250002 199.8197265625 90.017578125 200.712890625 C89.10298828124996 201.61072265625 88.18839843750004 202.5085546875 87.24609375 203.43359375 C86.34310546874997 204.32755859375 85.4401171875 205.2215234375 84.509765625 206.142578125 C82.81892686966961 207.81602397616095 81.12603796717787 209.48740280360101 79.430419921875 211.156005859375 C72.10599190146826 218.3824230056023 72.10599190146826 218.3824230056023 69.296875 221.4765625 C68.82225830078124 221.99629638671874 68.34764160156249 222.5160302734375 67.858642578125 223.051513671875 C67.36775146484376 223.59010009765626 66.87686035156253 224.1286865234375 66.37109375 224.68359375 C61.69082659230264 229.79644766138304 56.88701099960963 234.73187853546813 51.921875 239.5703125 C50.05859375 241.49609375000003 50.05859375 241.49609375000003 49.05859375 243.49609375 C48.39859375000003 243.49609375 47.73859375000001 243.49609375 47.05859375 243.49609375 C46.38251437200665 244.82467904905852 45.71778467724221 246.15904867085578 45.05859375 247.49609375 C43.378662109374886 249.3872070312501 43.378662109374886 249.3872070312501 41.3984375 251.31640625 C41.04297851562501 251.66638671875 41.04297851562501 251.66638671875 39.244140625 253.4375 C38.50228515624997 254.1580859375 37.76042968749999 254.878671875 36.99609375 255.62109375 C35.523861817793204 257.05896936226765 34.05370219345258 258.4989708291865 32.5859375 259.94140625 C31.933591308593748 260.5757861328125 31.281245117187495 261.210166015625 30.609130859375 261.86376953125 C29.05859375 263.49609375 29.05859375 263.49609375 28.05859375 265.49609375 C27.398593750000032 265.49609375 26.738593750000007 265.49609375 26.05859375 265.49609375 C26.05859375 266.15609375 26.05859375 266.81609375 26.05859375 267.49609375 C25.398593750000032 267.49609375 24.738593750000007 267.49609375 24.05859375 267.49609375 C23.728593750000016 268.15609375 23.398593750000032 268.81609375 23.05859375 269.49609375 C22.728593750000016 270.15609375 22.398593750000032 270.81609375 22.05859375 271.49609375 C21.398593750000032 271.49609375 20.738593750000007 271.49609375 20.05859375 271.49609375 C20.05859375 272.15609375 20.05859375 272.81609375 20.05859375 273.49609375 C19.398593750000032 273.49609375 18.738593750000007 273.49609375 18.05859375 273.49609375 C18.05859375 274.15609375 18.05859375 274.81609375 18.05859375 275.49609375 C15.05859375 277.49609375 15.05859375 277.49609375 12.69140625 277.414794921875 C9.233290959975761 276.2081102189483 7.4982790073079855 274.4048632453278 4.93359375 271.796875 C4.464213867187482 271.32420700073243 3.9948339843750205 270.85153900146486 3.51123046875 270.3645477294922 C2.0174099014920444 268.8550319864621 0.5382925025409122 267.33194072193623 -0.94140625 265.80859375 C-1.9353257661037446 264.80317353545377 -2.930109767054489 263.79860713959204 -3.92578125 262.794921875 C-16.931202948617397 249.6082536007067 -16.931202948617397 249.6082536007067 -16.9609375 246.3671875 C-15.743750975748583 244.13334709725507 -14.357267338537099 242.4275923575187 -12.62890625 240.55859375 C-10.614811305871797 238.34349951409527 -8.674826181946116 236.15894836981417 -6.81640625 233.80859375 C-4.27606616411299 230.67550764407264 -1.3921464663684446 227.9285935192801 1.47607421875 225.096435546875 C6.8809426423626405 219.756192528799 12.211000146320544 214.44325635732355 17.12890625 208.64453125 C20.28891195545873 205.12630627428683 23.679077794537875 201.83559073408904 27.060546875 198.53125 C30.956468986742436 194.70034327651513 30.956468986742436 194.70034327651513 32.05859375 192.49609375 C32.71859374999997 192.49609375 33.37859374999999 192.49609375 34.05859375 192.49609375 C34.73060885556225 191.16544807209834 35.39609897816507 189.83150488501184 36.05859375 188.49609375 C37.30231915043021 187.1041221774088 38.60149199100664 185.76068777320035 39.9375 184.45703125 C40.69353515624999 183.711953125 41.449570312499986 182.966875 42.228515625 182.19921875 C43.01806640625 181.4309375 43.8076171875 180.66265625 44.62109375 179.87109375 C46.18707265786304 178.33946206432407 47.750983143634244 176.80571179528891 49.3125 175.26953125 C50.00674072265622 174.5932568359375 50.70098144531249 173.916982421875 51.416259765625 173.22021484375 C53.05859375 171.49609374999994 53.05859375 171.49609374999994 54.05859375 169.49609375 C54.71859374999997 169.49609375 55.37859374999999 169.49609375 56.05859375 169.49609375 C56.05859375 168.83609375 56.05859375 168.17609375 56.05859375 167.49609375 C57.68448665994998 165.7658147193723 59.34175149722722 164.13299782119208 61.05859375 162.49609375 C62.30842357523335 161.2628785914613 63.555636594694306 160.02700797806284 64.80078125 158.7890625 C65.47496093749999 158.11939453125 66.14914062499997 157.4497265625 66.84375 156.759765625 C67.53339843750001 156.07462890625 68.22304687500002 155.3894921875 68.93359375 154.68359375 C69.61550781250003 154.01005859375 70.297421875 153.3365234375 71 152.642578125 C75.00148265724704 148.66015014707318 78.7938296018811 144.56964321128 82.47802734375 140.292724609375 C85.22186486037151 137.17380272416995 88.24047200440106 134.34734593010748 91.23828125 131.4765625 C93.05859375 129.49609375 93.05859375 129.49609375 94.05859375 126.49609375 C92.21807905218833 124.16774591151318 90.37160066855552 122.10741197949986 88.3046875 119.9921875 C87.67831893920902 119.33689559936522 87.05195037841793 118.68160369873047 86.40660095214844 118.00645446777344 C78.11838324330245 109.38680627085498 69.61147724044565 100.97813267769637 61.12109375 92.55859375 C57.85899202896928 89.32330120073007 54.6003883493853 86.08454085827499 51.34375 82.84375 C50.614467926025384 82.12276626586915 49.88518585205077 81.40178253173828 49.13380432128906 80.65895080566406 C45.1423284516336 76.68644437208906 41.34652028350848 72.61317412759776 37.66996765136719 68.34791564941406 C33.94875391008088 64.0714252006934 29.954254678487587 60.04940024885701 25.978515625 56.010986328125 C24.938741791341783 54.949358840883264 23.905295712810243 53.88150074471965 22.8779296875 52.807861328125 C21.37681644361436 51.24013203535561 19.857178229393583 49.692750958986096 18.33203125 48.1484375 C17.885612792968743 47.689490966796875 17.885612792968743 47.689490966796875 15.62646484375 45.366943359375 C13.05859375 43.49609375 13.05859375 43.49609375 10.462890625 43.498046875 C7.794629031395971 44.60566805642296 6.329902810327781 45.750032346227 4.31640625 47.8125 C3.6422265625000136 48.49505859375 2.9680468750000273 49.1776171875 2.2734375 49.880859375 C1.5837890624999886 50.59951171875 0.8941406249999773 51.3181640625 0.18359375 52.05859375 C-0.4983203125000273 52.75017578125 -1.1802343749999977 53.4417578125 -1.8828125 54.154296875 C-5.1593925131894025 57.50264959324019 -8.331228370506949 60.90970041052002 -11.38671875 64.4609375 C-16.054463503240413 69.85847307592113 -21.18449522554812 74.78543962193154 -26.26953125 79.78515625 C-30.50659684297011 83.97898647977651 -34.55490566580448 88.25092030360767 -38.4404296875 92.7724609375 C-40.22500199227596 94.82175834669296 -42.112908715732374 96.73298525453629 -44.06640625 98.62109375 C-46.45541277774055 100.95037511454703 -48.575282899120964 103.25961719865924 -50.56640625 105.93359375 C-52.94140625 108.49609375 -52.94140625 108.49609375 -55.75390625 109.80859375 C-60.8604497806416 109.30795222738809 -63.44286024916056 106.04084696217127 -66.94140625 102.49609375 C-67.27269531249999 102.16544921875 -67.27269531249999 102.16544921875 -68.94921875 100.4921875 C-70.28320958941964 99.1555809922678 -71.61261190485357 97.81437998313308 -72.9375 96.46875 C-74.89818859475338 94.53863744571059 -76.91960339267695 92.72874476584472 -79.00390625 90.93359375 C-81.70063118431739 88.59001136660513 -84.39079347824946 86.24542510460861 -87.00390625 83.80859375 C-87.29845703125 83.53853515624999 -87.29845703125 83.53853515624999 -88.7890625 82.171875 C-89.94140625 80.49609375 -89.94140625 80.49609375 -89.76953125 78.4765625 C-87.85252596594194 73.89202627821966 -83.61204812364554 69.78701405050978 -79.94140625 66.49609375 C-79.28140624999997 66.49609375 -78.62140625 66.49609375 -77.94140625 66.49609375 C-77.27130538281085 65.16448305238055 -76.60520605437915 63.830856665999846 -75.94140625 62.49609375 C-74.35546875 60.96875 -74.35546875 60.96875 -72.56640625 59.55859375 C-69.58797629890933 57.125074060231526 -67.33610029861762 54.51163440381481 -64.94140625 51.49609375 C-64.28140624999997 51.49609375 -63.62140625000001 51.49609375 -62.94140625 51.49609375 C-62.27006367463957 50.16510863786288 -61.60449681890515 48.83120914563112 -60.94140625 47.49609375 C-59.64181689371992 46.00545435884129 -58.28519373498085 44.563776970461625 -56.89404296875 43.158203125 C-56.05912322998046 42.310523681640625 -55.224203491210915 41.46284423828125 -54.363983154296875 40.5894775390625 C-53.4588296508789 39.682098388671875 -52.55367614746092 38.77471923828125 -51.62109375 37.83984375 C-50.678900704205375 36.89121750589179 -49.73685592495997 35.94244397986249 -48.794952392578125 34.9935302734375 C-46.819654926336966 33.0062697149833 -44.84027893170963 31.023174777900408 -42.8583984375 29.04248046875 C-40.33323836889247 26.517523037069708 -37.82208736018316 23.97912277332712 -35.31434440612793 21.43688201904297 C-33.371985137912986 19.472156448576797 -31.420471556143696 17.516719085350864 -29.466373443603516 15.563674926757813 C-28.088951335639308 14.182777920387945 -26.720616890485644 12.792835049017235 -25.352508544921875 11.4027099609375 C-17.215001891042107 3.3238473343453006 -11.52703887479197 -0.14760188330240176 0 0 Z " fill="#000000" transform="translate(356.94140625,9.50390625)"/>
<path d="M0 0 C3.0201422378233076 1.169207190727775 4.6825879292140655 2.99092579650204 6.9560546875 5.290283203125 C7.863554687499999 6.202939453124998 8.771054687499998 7.1155957031249955 9.7060546875 8.055908203125 C9.940502929687511 8.29551269531251 9.940502929687511 8.29551269531251 11.126953125 9.508056640625 C12.539008105573771 10.950955142958748 13.961154538255897 12.383205504716216 15.3857421875 13.813720703125 C28.66071515405767 27.239118292533192 28.66071515405767 27.239118292533192 29.9951171875 31.344970703125 C28.840085202150306 34.898915273431754 26.53836161031026 36.809736895675655 23.8115234375 39.294189453125 C22.1826171875 40.844970703125 22.1826171875 40.844970703125 21.1826171875 42.844970703125 C20.522617187500003 42.844970703125 19.862617187500007 42.844970703125 19.1826171875 42.844970703125 C18.494957778338687 44.16759943380271 17.831698810136402 45.50298885921728 17.1826171875 46.844970703125 C15.781494140625 48.457275390625 15.781494140625 48.457275390625 14.1708984375 50.016845703125 C13.581394042968753 50.59474853515624 12.991889648437507 51.172651367187484 12.384521484375 51.76806640625 C11.761018066406251 52.37094482421875 11.137514648437502 52.97382324218751 10.4951171875 53.594970703125 C6.084394342166348 57.92536673807189 1.8153523894756631 62.268767152176395 -2.1806640625 66.989501953125 C-4.851536856491947 70.01734103939273 -7.76462354934722 72.79965600917296 -10.6376953125 75.634033203125 C-12.579718294456654 77.60389880847885 -14.397999519403243 79.61650703418383 -16.1923828125 81.719970703125 C-19.079530811185776 85.09054813414886 -22.15985279437865 88.23000934045524 -25.3173828125 91.344970703125 C-28.43317776746241 94.41887261667614 -31.476155392697976 97.51199238374187 -34.3173828125 100.844970703125 C-37.15861082305268 104.1779497155041 -40.20159904307371 107.27105871289479 -43.3173828125 110.344970703125 C-46.412297834251135 113.39835021040875 -49.43672557900261 116.46820755077232 -52.2548828125 119.782470703125 C-55.817460490501745 123.96914958019272 -59.71297832003202 127.7960068741512 -63.643310546875 131.6337890625 C-65.78166419325785 133.73599956257635 -67.77320285341335 135.78487003806117 -69.5517578125 138.204345703125 C-69.7605859375 138.475048828125 -69.7605859375 138.475048828125 -70.8173828125 139.844970703125 C-71.4773828125 139.844970703125 -72.1373828125 139.844970703125 -72.8173828125 139.844970703125 C-73.0855078125 140.401845703125 -73.3536328125 140.95872070312498 -73.6298828125 141.532470703125 C-74.8173828125 143.844970703125 -74.8173828125 143.844970703125 -77.5048828125 146.344970703125 C-79.8173828125 148.844970703125 -79.8173828125 148.844970703125 -79.7548828125 150.907470703125 C-79.4455078125 151.54684570312497 -79.1361328125 152.186220703125 -78.8173828125 152.844970703125 C-78.5080078125 153.587470703125 -78.1986328125 154.329970703125 -77.8798828125 155.094970703125 C-77.52925781249999 155.672470703125 -77.1786328125 156.24997070312497 -76.8173828125 156.844970703125 C-76.1573828125 156.844970703125 -75.4973828125 156.844970703125 -74.8173828125 156.844970703125 C-73.37632751464844 158.30850219726563 -73.37632751464844 158.30850219726563 -71.699951171875 160.335693359375 C-67.9105569280178 164.78939482138583 -63.862674622692396 168.8943567894815 -59.6962890625 172.993408203125 C-58.16946927448544 174.50760299130354 -56.64278020684283 176.02192959929653 -55.1162109375 177.536376953125 C-52.73240680819396 179.89520295014972 -50.34701577945212 182.25238359764262 -47.959228515625 184.607177734375 C-45.63810710163942 186.89828362859924 -43.32309074091128 189.19541676611777 -41.0087890625 191.493408203125 C-40.28703994750977 192.2016976928711 -39.56529083251954 192.90998718261721 -38.82167053222656 193.63973999023438 C-38.492614669799806 193.96710647583006 -38.492614669799806 193.96710647583006 -36.827392578125 195.623779296875 C-36.244499664306645 196.19921478271488 -35.661606750488275 196.7746502685547 -35.06105041503906 197.36752319335938 C-33.8173828125 198.844970703125 -33.8173828125 198.844970703125 -33.8173828125 200.844970703125 C-32.48664275369421 201.51679889404272 -31.15285410205493 202.18259720048718 -29.8173828125 202.844970703125 C-28.3041992187501 204.3662109374999 -28.3041992187501 204.3662109374999 -26.7939453125 206.216064453125 C-22.334060102926898 211.47635039497618 -17.57277139593303 216.4183835178194 -12.7373046875 221.330078125 C-11.697530853841783 222.3917056122417 -10.664084775310272 223.4595637084053 -9.63671875 224.533203125 C-8.135605506114388 226.10093241776934 -6.615967291893526 227.64831349413896 -5.0908203125 229.192626953125 C-4.197983398437486 230.11052001953124 -3.305146484375001 231.02841308593747 -2.38525390625 231.97412109375 C0.1826171875 233.844970703125 0.1826171875 233.844970703125 2.7509765625 233.870361328125 C5.603318665281961 232.66756646550607 7.197650871389044 231.30191048106292 9.3623046875 229.091064453125 C10.126718750000009 228.31827148437503 10.89113281249999 227.545478515625 11.6787109375 226.749267578125 C12.463750000000005 225.93522460937504 13.248789062500009 225.12118164062497 14.0576171875 224.282470703125 C14.446269531249982 223.888984375 14.446269531249982 223.888984375 16.4130859375 221.897705078125 C19.8480387770459 218.39636239378115 23.18834572026674 214.85193796337416 26.3955078125 211.140869140625 C32.969288579715 203.5947718000706 40.07250604166447 196.5354999854071 47.0986328125 189.4140625 C48.916244189009404 187.56450860200368 50.72574559005267 185.7069523129419 52.52734375 183.841796875 C55.13588034848303 181.14273204915025 57.769081919021346 178.47015697735742 60.4091796875 175.802001953125 C61.21449127197266 174.95853713989254 62.019802856445324 174.1150723266602 62.849517822265625 173.2460479736328 C63.60735565185547 172.49083358764648 64.36519348144532 171.73561920166014 65.14599609375 170.95751953125 C65.80661041259765 170.2821565246582 66.4672247314453 169.6067935180664 67.14785766601563 168.9109649658203 C67.81932830810547 168.55918685913082 68.49079895019531 168.20740875244144 69.1826171875 167.844970703125 C77.35896204560947 171.5174699687932 83.6218951880675 180.03262467975907 89.3076171875 186.770751953125 C92.42710197804584 190.22168200266634 95.90045774499043 193.32047556354644 99.3388671875 196.450439453125 C101.1826171875 198.844970703125 101.1826171875 198.844970703125 101.08309936523438 201.18199157714844 C99.9175134675306 204.62895698286843 98.20761552935016 206.2940576612841 95.61865234375 208.84716796875 C95.38202629089355 209.08328292846682 95.38202629089355 209.08328292846682 94.18455505371094 210.27816772460938 C92.6227445487801 211.83211398518017 91.04736779168002 213.37151518360065 89.4716796875 214.911376953125 C88.38076011773592 215.99228887401125 87.29079743525921 217.07416732263033 86.20175170898438 218.15696716308594 C83.33449455134163 221.00330647770977 80.45587987738122 223.83786878609612 77.57427978515625 226.669677734375 C72.96626948596125 231.20238698428625 68.37674040846423 235.75382749243408 63.78522872924805 240.30323600769043 C62.18244344200869 241.88836940832812 60.575491348675655 243.46917425413938 58.967681884765625 245.04920959472656 C57.980191459577696 246.0234748346952 56.99275183383122 246.99779156726765 56.00537109375 247.97216796875 C55.144569396972656 248.81868423461913 54.28376770019531 249.66520050048825 53.396881103515625 250.53736877441406 C51.18261718750006 252.8449707031249 51.18261718750006 252.8449707031249 49.506195068359375 255.14952087402344 C49.28780471801758 255.4292700958252 49.28780471801758 255.4292700958252 48.1826171875 256.844970703125 C47.5226171875 256.844970703125 46.86261718750001 256.844970703125 46.1826171875 256.844970703125 C46.1826171875 257.504970703125 46.1826171875 258.164970703125 46.1826171875 258.844970703125 C45.5226171875 258.844970703125 44.86261718750001 258.844970703125 44.1826171875 258.844970703125 C44.0485546875 259.123408203125 44.0485546875 259.123408203125 43.3701171875 260.532470703125 C41.78356565139319 263.62207106291197 39.72461731642113 265.4687531913074 37.1826171875 267.844970703125 C36.580625 268.440517578125 35.978632812499995 269.036064453125 35.3583984375 269.649658203125 C35.03033203125 269.960322265625 35.03033203125 269.960322265625 33.3701171875 271.532470703125 C32.76554687500001 272.113837890625 32.1609765625 272.695205078125 31.5380859375 273.294189453125 C25.710189731962572 277.13112940934116 18.721155146001763 277.1533939610226 11.9677734375 277.145751953125 C11.112596282958975 277.1500370788574 10.257419128417979 277.15432220458985 9.376327514648438 277.1587371826172 C7.5787748220834885 277.16444604179827 5.7811990440266925 277.1650063560527 3.983642578125 277.16064453125 C1.2559414571211676 277.1574832479681 -1.4706745897357791 277.18099124659454 -4.1982421875 277.206298828125 C-5.955402295717619 277.20857228277316 -7.712565281435502 277.209275102739 -9.4697265625 277.208251953125 C-10.27312973022461 277.21746170043946 -11.076532897949221 277.2266714477539 -11.904281616210938 277.2361602783203 C-19.11469416629606 277.1781588845849 -25.15904252802038 275.90823795073857 -30.93115234375 271.42822265625 C-31.38804443359375 270.95880249023435 -31.38804443359375 270.95880249023435 -33.7001953125 268.583251953125 C-33.95187973022462 268.32850852966305 -33.95187973022462 268.32850852966305 -35.225555419921875 267.0393524169922 C-36.81255979265953 265.4257188002524 -38.37718225128029 263.79223034781796 -39.9423828125 262.157470703125 C-40.99701335815938 261.08126743175467 -42.052995239531626 260.00638667734825 -43.1103515625 258.932861328125 C-47.1078830199821 254.85022063516197 -51.04597279892083 250.76156794963276 -54.741455078125 246.4033203125 C-60.024861679566044 240.33200664549128 -65.82240854169088 234.74721849076263 -71.53409767150879 229.08365631103516 C-73.68450984932684 226.95078621166613 -75.83122876472365 224.8142608726602 -77.97697448730469 222.67669677734375 C-84.07273934245254 216.60526516651692 -90.17424547100228 210.53962686326423 -96.280029296875 204.478271484375 C-100.02704172056146 200.75801803408763 -103.76918727755088 197.03292650371657 -107.50836753845215 193.30480194091797 C-108.93105541463453 191.88832052118835 -110.35563779694115 190.47373926524972 -111.78214454650879 189.06110382080078 C-113.77086753963064 187.09156840737057 -115.75338019647027 185.1159756712933 -117.734619140625 183.138916015625 C-118.02942420959472 182.8484917449951 -118.02942420959472 182.8484917449951 -119.52131652832031 181.37876892089844 C-123.63085536308617 177.25929680856234 -126.02119115202262 174.4507418690397 -126.155517578125 168.58642578125 C-126.17796035766602 167.75488479614262 -126.20040313720703 166.92334381103512 -126.22352600097656 166.0666046142578 C-126.2351628112793 165.17491073608397 -126.24679962158203 164.28321685791013 -126.2587890625 163.364501953125 C-126.27256088256836 162.4370768737793 -126.28633270263671 161.50965179443358 -126.30052185058594 160.5541229248047 C-126.32377783121017 158.59148096228836 -126.34105141227609 156.62876030496943 -126.352783203125 154.666015625 C-126.37963971743247 151.6844586357114 -126.45454203883025 148.70648965508406 -126.5302734375 145.725830078125 C-126.74762256554958 129.73172898297565 -126.74762256554958 129.73172898297565 -122.4072265625 123.981689453125 C-120.524169921875 122.046875 -120.524169921875 122.046875 -118.8173828125 120.844970703125 C-118.1573828125 120.844970703125 -117.4973828125 120.844970703125 -116.8173828125 120.844970703125 C-116.14144717727183 119.51631226723907 -115.47669263875807 118.18195715601888 -114.8173828125 116.844970703125 C-113.140869140625 114.957275390625 -113.140869140625 114.957275390625 -111.1494140625 113.016845703125 C-110.42044921875001 112.29883789062501 -109.691484375 111.58083007812502 -108.9404296875 110.841064453125 C-108.17794921875 110.099853515625 -107.41546875 109.358642578125 -106.6298828125 108.594970703125 C-98.17803946805003 100.34104563300303 -98.17803946805003 100.34104563300303 -94.5166015625 96.048095703125 C-89.12448955669643 89.77110444066193 -83.09971030184025 84.07249692660531 -77.21484375 78.262939453125 C-71.7383142415906 72.85020765204837 -66.33147745936019 67.44169421179407 -61.3291015625 61.579345703125 C-58.96080134126038 58.86222606945475 -56.396898694399155 56.359539357253965 -53.8173828125 53.844970703125 C-49.87909713550518 49.960325196316774 -46.127116958516666 46.00889415582441 -42.5439453125 41.790283203125 C-39.75848297555363 38.6519116108189 -36.74252307265661 35.749797290024276 -33.7353515625 32.825439453125 C-31.81738281249997 30.84497070312497 -31.81738281249997 30.84497070312497 -29.8173828125 27.844970703125 C-29.157382812500003 27.844970703125 -28.497382812500007 27.844970703125 -27.8173828125 27.844970703125 C-27.8173828125 27.184970703125003 -27.8173828125 26.524970703125007 -27.8173828125 25.844970703125 C-27.157382812500003 25.844970703125 -26.497382812500007 25.844970703125 -25.8173828125 25.844970703125 C-25.550546874999995 25.290673828124994 -25.283710937500004 24.73637695312499 -25.0087890625 24.165283203125 C-23.42524532716925 21.08126687923496 -21.245260140398116 19.120766112753387 -18.7548828125 16.719970703125 C-13.9146050347222 12.0394151475694 -13.9146050347222 12.0394151475694 -12.8173828125 9.844970703125 C-12.157382812500003 9.844970703125 -11.497382812500007 9.844970703125 -10.8173828125 9.844970703125 C-10.140320141164352 8.516886232428163 -9.475513307002757 7.18253807504604 -8.8173828125 5.844970703125 C-7.2314453125 4.106689453125 -7.2314453125 4.106689453125 -5.4423828125 2.532470703125 C-5.149765624999986 2.2662792968750125 -5.149765624999986 2.2662792968750125 -3.6689453125 0.919189453125 C-1.8173828125 -0.155029296875 -1.8173828125 -0.155029296875 0 0 Z " fill="#000000" transform="translate(142.8173828125,138.155029296875)"/>
<path d="M0 0 C3.1559011766073013 1.3853773835380139 5.062172444121131 3.5413003774767446 7.45703125 6.00390625 C7.943410644531241 6.501242675781242 8.429790039062482 6.9985791015625125 8.930908203125 7.510986328125 C12.230032045428402 10.910830062079924 15.381018053436605 14.417905216764211 18.4453125 18.03125 C20.981783837140483 20.88259364106139 23.75575723395059 23.477764119173912 26.54296875 26.08203125 C28.350726355853 28.180793738746445 29.097837249036957 29.16051908153517 29.14453125 31.94140625 C27.5625 34.51953124999997 27.5625 34.51953124999997 25.33203125 37.19140625 C24.60371093750001 38.0834375 23.875390625000023 38.975468750000005 23.125 39.89453125 C22.47144531250001 40.56999999999999 21.817890625000018 41.245468749999986 21.14453125 41.94140625 C20.484531250000032 41.94140625 19.824531250000007 41.94140625 19.14453125 41.94140625 C18.468595614771857 43.270064685885956 17.803841076258095 44.60441979710612 17.14453125 45.94140625 C15.468017578125057 47.82910156249994 15.468017578125057 47.82910156249994 13.4765625 49.76953125 C12.74759765624998 50.48753906249999 12.018632812500016 51.20554687500001 11.267578125 51.9453125 C10.505097656249973 52.6865234375 9.742617187500002 53.427734375 8.95703125 54.19140625 C4.024404553768363 59.00852477554798 -0.7381764375087414 63.8618468717259 -5.231689453125 69.0927734375 C-7.646029325105985 71.84144003058978 -10.237322751486374 74.38878984634391 -12.85546875 76.94140625 C-18.39568423792639 82.41350080040945 -23.53293347266407 88.11574798985328 -28.48046875 94.12890625 C-30.82012516447213 96.89955200398018 -33.27693105377841 99.3915189726253 -35.85546875 101.94140625 C-53.85587304053337 119.752741545827 -53.85587304053337 119.752741545827 -60.16796875 127.94140625 C-60.446406249999995 128.27140624999998 -60.446406249999995 128.27140624999998 -61.85546875 129.94140625 C-62.51546874999997 129.94140625 -63.17546874999999 129.94140625 -63.85546875 129.94140625 C-63.85546875 130.60140624999997 -63.85546875 131.26140625 -63.85546875 131.94140625 C-64.51546874999997 131.94140625 -65.17546875 131.94140625 -65.85546875 131.94140625 C-66.14421875 132.51890625 -66.43296874999999 133.09640624999997 -66.73046875 133.69140625 C-68.09937051883242 136.42920978766483 -69.42778452779862 138.06862127858744 -71.85546875 139.94140625 C-76.45176061850765 139.93988126928718 -78.75707838600198 137.53676448984146 -81.86911010742188 134.5092010498047 C-82.48078033447268 133.89257095336916 -83.09245056152344 133.27594085693363 -83.72265625 132.640625 C-84.36163848876953 132.00784133911134 -85.00062072753906 131.37505767822267 -85.65896606445313 130.7230987548828 C-87.00355968315421 129.3855966792495 -88.3430517626876 128.0429489836959 -89.677734375 126.695556640625 C-91.72852319796857 124.63086499143031 -93.8022193001101 122.59133726463989 -95.87890625 120.552734375 C-97.18244183190541 119.25014960681273 -98.48457523564866 117.94615980103589 -99.78515625 116.640625 C-100.0970640563965 116.33534629821776 -100.0970640563965 116.33534629821776 -101.67550659179688 114.79045104980469 C-103.38623046874994 113.04174804687506 -103.38623046874994 113.04174804687506 -105.85546875 109.94140625 C-105.42379565119563 106.40949779616963 -104.07697018849439 104.81360171064728 -101.546875 102.375 C-100.88236328124998 101.72466796875 -100.21785156250002 101.0743359375 -99.533203125 100.404296875 C-99.18418945312499 100.07010742187501 -99.18418945312499 100.07010742187501 -97.41796875 98.37890625 C-96.0421181433814 97.04649011007129 -94.66833190818011 95.71193814766445 -93.296875 94.375 C-92.99108520507815 94.08137573242186 -92.99108520507815 94.08137573242186 -91.443603515625 92.595458984375 C-89.85546875 90.94140625 -89.85546875 90.94140625 -87.85546875 87.94140625 C-87.19546874999997 87.94140625 -86.53546875 87.94140625 -85.85546875 87.94140625 C-85.18345364443775 86.61076057209834 -84.51796352183493 85.27681738501184 -83.85546875 83.94140625 C-82.61174334956979 82.54943467740884 -81.31257050899336 81.20600027320035 -79.9765625 79.90234375 C-79.22052734375 79.15726562499998 -78.46449218750001 78.41218750000002 -77.685546875 77.64453125 C-76.89599609375 76.87625 -76.1064453125 76.10796875 -75.29296875 75.31640625 C-73.72698984213696 73.78477456432407 -72.1630793563657 72.25102429528891 -70.6015625 70.71484375 C-69.90732177734378 70.0385693359375 -69.2130810546875 69.36229492187499 -68.497802734375 68.66552734375 C-66.85546875 66.94140625 -66.85546875 66.94140625 -65.85546875 64.94140625 C-65.19546875000003 64.94140625 -64.53546875 64.94140625 -63.85546875 64.94140625 C-63.58694091796872 64.38743164062498 -63.31841308593749 63.83345703124999 -63.041748046875 63.2626953125 C-61.4686829968731 60.184551147976805 -59.34085263237506 58.22093350105325 -56.875 55.80078125 C-56.3839225769043 55.31490539550782 -55.892845153808594 54.829029541015615 -55.38688659667969 54.32843017578125 C-53.81861227267859 52.777903221188296 -52.243833926370485 51.234214692460995 -50.66796875 49.69140625 C-48.608523133053154 47.66884526877169 -46.55235780531814 45.643034357357664 -44.5 43.61328125 C-44.00064941406248 43.119519958496085 -43.501298828125016 42.6257586669922 -42.98681640625 42.117034912109375 C-39.684958052665024 38.82872341989679 -36.592081869122694 35.42425574386337 -33.570068359375 31.880859375 C-30.147955464033487 28.009968752674382 -26.41267469522745 24.437547420016358 -22.73046875 20.81640625 C-14.009860400808805 12.238993440204382 -14.009860400808805 12.238993440204382 -10.92578125 8.38671875 C-10.242578125000023 7.579765624999993 -9.559374999999989 6.772812499999986 -8.85546875 5.94140625 C-8.195468750000032 5.94140625 -7.535468750000007 5.94140625 -6.85546875 5.94140625 C-6.700781249999977 5.632031250000011 -6.700781249999977 5.632031250000011 -5.91796875 4.06640625 C-4.5745226602872435 1.3795140705744586 -3.1490215776354376 -0.09944278666216633 0 0 Z " fill="#000000" transform="translate(369.85546875,138.05859375)"/>
<path d="M0 0 C0.4021874999999966 0.010312499999997726 0.4021874999999966 0.010312499999997726 2.4375 0.0625 C2.4375 0.7224999999999966 2.4375 1.3824999999999932 2.4375 2.0625 C3.0974999999999966 2.0625 3.757499999999993 2.0625 4.4375 2.0625 C5.8125 3.4719238281249716 5.8125 3.4719238281249716 7.4375 5.45703125 C10.246409596271178 8.764930232538234 13.17763826798435 11.823028108192972 16.3125 14.82421875 C17.151679687500007 15.633105468749989 17.990859375000014 16.441992187500006 18.85546875 17.275390625 C20.598991468687927 18.946376468099572 22.351874042549326 20.607642806332763 24.11328125 22.259765625 C24.527714843750005 22.662275390624984 24.527714843750005 22.662275390624984 26.625 24.69921875 C27.003339843749984 25.058665771484385 27.003339843749984 25.058665771484385 28.91796875 26.877685546875 C30.4375 29.0625 30.4375 29.0625 30.42578125 31.56298828125 C29.23010676019365 34.58702865344304 27.777331824452716 36.16420495815248 25.4375 38.41796875 C24.633125000000007 39.204941406249986 23.828750000000014 39.9919140625 23 40.802734375 C22.154375000000016 41.61033203125001 21.308750000000003 42.41792968749999 20.4375 43.25 C18.768879975496475 44.866475648737776 17.102115453583934 46.48486957042911 15.4375 48.10546875 C14.694999999999993 48.81727294921876 13.952499999999986 49.529077148437494 13.1875 50.262451171875 C11.4375 52.0625 11.4375 52.0625 10.4375 54.0625 C9.777500000000003 54.0625 9.117500000000007 54.0625 8.4375 54.0625 C7.7448774489564585 55.382536447984734 7.0820538104331945 56.71833758136219 6.4375 58.0625 C5.1431427001953125 59.59063720703125 5.1431427001953125 59.59063720703125 3.659423828125 61.0517578125 C3.1015669250488145 61.60623596191405 2.5437100219726574 62.16071411132813 1.9689483642578125 62.73199462890625 C1.3668907165527457 63.32059265136718 0.7648330688476506 63.909190673828135 0.14453125 64.515625 C-0.47972244262695085 65.13467712402343 -1.1039761352539017 65.75372924804688 -1.7471466064453125 66.39154052734375 C-3.7433997042468263 68.37001146958443 -5.746188004626049 70.34168743284653 -7.75 72.3125 C-10.371870819271237 74.89764099295667 -12.990542402450103 77.485959575896 -15.60546875 80.078125 C-16.23198333740234 80.69905029296876 -16.85849792480468 81.3199755859375 -17.503997802734375 81.959716796875 C-21.20220302604045 85.64570403180306 -24.743795264062214 89.40600950795593 -28.118408203125 93.3935546875 C-30.609312369303467 96.27230716087212 -33.34132765853508 98.90369469651796 -36.0625 101.5625 C-39.51382526572803 104.97092743756644 -42.923936021044426 108.35899450483242 -46.0625 112.0625 C-49.71996301450801 116.37830635711947 -53.75725068842931 120.29510585832486 -57.787109375 124.2587890625 C-61.446968129701816 127.87826610039616 -64.84722732760025 131.5938320867873 -68 135.671875 C-70.1914157818604 137.62223504585575 -71.63812914069868 137.900680236798 -74.5625 138.0625 C-76.94677734375 136.375244140625 -76.94677734375 136.375244140625 -79.3984375 133.84765625 C-80.29820312499999 132.93306640624996 -81.19796875 132.01847656250004 -82.125 131.076171875 C-83.06268025204002 130.09261973040714 -84.00017921589824 129.10889472195447 -84.9375 128.125 C-85.85789062500001 127.18591796875 -86.77828124999999 126.24683593750001 -87.7265625 125.279296875 C-90.36862786517293 122.56740549660464 -92.96840371538957 119.82020180354891 -95.5625 117.0625 C-96.307900390625 116.30308105468748 -97.05330078125 115.54366210937502 -97.8212890625 114.76123046875 C-98.470654296875 114.07561035156249 -99.12001953125 113.38999023437498 -99.7890625 112.68359375 C-100.3544775390625 112.09892333984374 -100.919892578125 111.51425292968747 -101.50244140625 110.911865234375 C-102.5625 109.0625 -102.5625 109.0625 -102.322265625 106.44482421875 C-101.4563896779882 103.7297800378563 -100.53568898067856 102.64589721796739 -98.4375 100.75 C-95.84359313911939 98.30929741399831 -93.43680666417723 95.83539402006986 -91.125 93.125 C-87.98042539907172 89.46702546422631 -84.62704594402175 86.08258120443804 -81.1640625 82.7265625 C-79.5625 81.0625 -79.5625 81.0625 -78.5625 79.0625 C-77.9025 79.0625 -77.2425 79.0625 -76.5625 79.0625 C-75.8818046703935 77.7362737408443 -75.21778963628338 76.40146143140936 -74.5625 75.0625 C-72.99023437499994 73.27905273437494 -72.99023437499994 73.27905273437494 -71.15625 71.49609375 C-70.82560546874998 71.170927734375 -70.82560546874998 71.170927734375 -69.15234375 69.525390625 C-68.46269531249999 68.85701171875002 -67.773046875 68.1886328125 -67.0625 67.5 C-65.69567271642674 66.16766275068514 -64.33099689809549 64.83311385368631 -62.96875 63.49609375 C-62.36353515625001 62.90884521484375 -61.75832031249999 62.3215966796875 -61.134765625 61.716552734375 C-59.5625 60.0625 -59.5625 60.0625 -57.5625 57.0625 C-56.9025 57.0625 -56.24250000000001 57.0625 -55.5625 57.0625 C-55.43552734374998 56.79179687499999 -55.43552734374998 56.79179687499999 -54.79296875 55.421875 C-53.08029044372981 52.13788231115177 -50.51608888260483 49.84955820600757 -47.875 47.3125 C-43.63618766031249 43.17651599200303 -39.61938138591262 38.982862293206495 -35.8671875 34.390625 C-35.436640624999995 33.95234375000001 -35.00609374999999 33.514062499999994 -34.5625 33.0625 C-33.9025 33.0625 -33.24250000000001 33.0625 -32.5625 33.0625 C-31.890484894437748 31.731854322098343 -31.22499477183493 30.39791113501184 -30.5625 29.0625 C-29.318774599569792 27.67052842740881 -28.01960175899336 26.327094023200345 -26.68359375 25.0234375 C-25.927558593750007 24.278359375000008 -25.171523437500014 23.533281250000016 -24.392578125 22.765625 C-23.60302734375 21.99734375 -22.8134765625 21.229062499999998 -22 20.4375 C-20.43402109213696 18.905868314324067 -18.8701106063657 17.372118045288914 -17.30859375 15.8359375 C-16.96147338867189 15.497800292968748 -16.96147338867189 15.497800292968748 -15.204833984375 13.78662109375 C-13.5625 12.0625 -13.5625 12.0625 -12.5625 10.0625 C-11.902500000000003 10.0625 -11.242500000000007 10.0625 -10.5625 10.0625 C-10.294375000000002 9.505625000000009 -10.026250000000005 8.94874999999999 -9.75 8.375 C-8.196141099800741 5.349064246980362 -6.016310759616374 3.390474310405267 -3.5625 1.0625 C-2.5625 0.0625 -2.5625 0.0625 0 0 Z " fill="#000000" transform="translate(216.5625,148.9375)"/>
<path d="M0 0 C2.184814453125 0.413818359375 2.184814453125 0.413818359375 4 2 C4.604248046875 2.5188476562499886 5.20849609375 3.0376953125000057 5.8310546875 3.572265625 C6.134790039062523 3.8748730468749955 6.134790039062523 3.8748730468749955 7.671875 5.40625 C8.003808593750023 5.7368945312499875 8.003808593750023 5.7368945312499875 9.68359375 7.41015625 C10.365507812500027 8.099804687500011 11.047421874999998 8.789453124999994 11.75 9.5 C12.447382812499995 10.189648437500011 13.144765624999991 10.879296874999994 13.86328125 11.58984375 C14.521992187500018 12.251132812500003 15.18070312499998 12.912421875000007 15.859375 13.59375 C16.160854492187468 13.896357421874995 16.160854492187468 13.896357421874995 17.6865234375 15.427734375 C19 17.00000000000003 19 17.00000000000003 19 19 C19.660000000000025 19 20.319999999999993 19 21 19 C22.374999999999886 20.398437499999886 22.374999999999886 20.398437499999886 24 22.375 C26.90649318347812 25.81160829241435 29.964656777032303 28.983084893414087 33.1875 32.125 C39.89423617201709 38.77058052303215 43.07981769762563 43.340926850122685 43.16459655761719 52.96617126464844 C43.16515296936035 53.35267097473144 43.16515296936035 53.35267097473144 43.16796875 55.30859375 C43.17129714965819 56.11232925415038 43.17462554931643 56.91606475830076 43.17805480957031 57.74415588378906 C43.18310889811994 59.44116647556058 43.185463604420534 61.13818696787496 43.185302734375 62.835205078125 C43.187489284334674 65.42480908038726 43.20566100383218 68.01398692631534 43.224609375 70.603515625 C43.22754364088547 72.2552068817252 43.229528214747006 73.90690015467055 43.23046875 75.55859375 C43.237654266357424 76.32956893920897 43.24483978271485 77.10054412841794 43.25224304199219 77.89488220214844 C43.21042650804833 87.78254195415326 38.51914437758137 92.13998532816606 32 99 C31.657109375000005 99.36351562499999 31.657109375000005 99.36351562499999 29.921875 101.203125 C26.473958948611937 104.76693738924985 26.473958948611937 104.76693738924985 25 106 C24.339999999999975 106 23.680000000000007 106 23 106 C22.308536702069432 107.32064405872177 21.645722426181578 108.65639858196397 21 110 C19.671861648559457 111.57144069671642 19.671861648559457 111.57144069671642 18.128936767578125 113.10484313964844 C17.542977294921855 113.69210678100586 16.95701782226564 114.27937042236329 16.353302001953125 114.88442993164063 C15.712225036621078 115.516745300293 15.071148071289088 116.14906066894531 14.41064453125 116.800537109375 C13.734027709960912 117.4758396911621 13.057410888671882 118.15114227294919 12.36029052734375 118.84690856933594 C10.122357160258389 121.0783507675792 7.877536774657642 123.30273483158726 5.6328125 125.52734375 C4.075328371710896 127.07855626248971 2.5183590868898023 128.6302858574121 0.961883544921875 130.18251037597656 C-3.1390300625659506 134.27011559937773 -7.24546761443429 138.35212242295955 -11.353515625 142.43255615234375 C-17.923082413887528 148.95902765173213 -24.486000394492294 155.4921673961262 -31.04562759399414 162.02862739562988 C-33.336538946244104 164.3093317487826 -35.63084349446831 166.58658132722485 -37.925506591796875 168.86351013183594 C-39.33440610345747 170.26557909692463 -40.743194956241155 171.66775927171972 -42.15185546875 173.070068359375 C-42.78888397216798 173.70035949707028 -43.42591247558596 174.33065063476562 -44.082244873046875 174.98004150390625 C-46.61662808199583 177.5079317148818 -48.99090920686865 179.98858996666775 -51.224884033203125 182.79249572753906 C-55.24759641287261 187.79507298508338 -59.61579665258512 189.06965514379664 -65.74969482421875 189.79205322265625 C-69.43669248535792 190.13276224735182 -73.11168040860605 190.1825605595232 -76.8125 190.203125 C-77.62565673828124 190.20882507324222 -78.43881347656247 190.21452514648433 -79.276611328125 190.22039794921875 C-80.98419926327483 190.22978075076276 -82.69180475618356 190.23635491425108 -84.3994140625 190.240234375 C-86.9931606578113 190.24997431715292 -89.58612498655373 190.28107478211655 -92.1796875 190.3125 C-93.84895369139656 190.3190287069104 -95.51822547032964 190.32427969802688 -97.1875 190.328125 C-97.95231689453124 190.34047180175781 -98.71713378906247 190.35281860351563 -99.505126953125 190.36553955078125 C-106.15554999850315 190.338361464282 -112.59485605461077 188.952203237518 -117.51953125 184.1875 C-118.06673828124997 183.669296875 -118.6139453125 183.15109374999997 -119.177734375 182.6171875 C-119.71720703125004 182.08351562500002 -120.25667968749997 181.54984375000004 -120.8125 181 C-121.37130859374997 180.46632812500002 -121.9301171875 179.93265625000004 -122.505859375 179.3828125 C-124.01717554615169 177.93454289141124 -125.51332942177652 176.47351420142502 -127 175 C-127.55389404296875 174.48824218749996 -128.1077880859375 173.97648437500004 -128.678466796875 173.44921875 C-130 172 -130 172 -130 170 C-131.33161069761945 169.32989913281085 -132.66523708400018 168.6637998043792 -134 168 C-135.52734375 166.4140625 -135.52734375 166.4140625 -136.9375 164.625 C-139.3821570550337 161.6446120538128 -141.9695015657207 159.3924987639047 -145 157 C-146.34736973043277 155.3446600454683 -147.68334335685506 153.67987226884009 -149 152 C-149.65999999999997 151.66999999999996 -150.32 151.34000000000003 -151 151 C-151 150.34000000000003 -151 149.68 -151 149 C-151.65999999999997 149 -152.32 149 -153 149 C-156.26180016615513 146.03472712167718 -159.11779677041625 142.74514599820282 -162.040771484375 139.44921875 C-166.9383034521145 134.0020715011334 -172.07353598133813 128.83246605008446 -177.28515625 123.6875 C-178.23673616564952 122.74288805706766 -179.187936141224 121.79789323562574 -180.13877868652344 120.8525390625 C-184.12812381369724 116.88735455219091 -188.1235047160144 112.92828927934016 -192.122802734375 108.97314453125 C-194.11210708167852 107.00538234488272 -196.09876232352445 105.0350143758252 -198.08262634277344 103.061767578125 C-199.94246666105846 101.21229511310236 -201.80642542110593 99.3669533776391 -203.67481994628906 97.526123046875 C-204.0907415008545 97.11189086914061 -204.0907415008545 97.11189086914061 -206.195556640625 95.015625 C-206.9323011779785 94.28633789062502 -207.66904571533203 93.55705078124998 -208.42811584472656 92.8056640625 C-210 91 -210 91 -210 89 C-210.99 88.67000000000002 -211.98 88.34000000000003 -213 88 C-214.6484375 86.328125 -214.6484375 86.328125 -216.375 84.25 C-219.101481473572 80.98818198138872 -221.98236697881742 77.99518200462126 -225 75 C-225.8776904296875 74.12754638671873 -226.755380859375 73.25509277343747 -227.65966796875 72.356201171875 C-228.5943994140625 71.42783447265623 -229.52913085937502 70.49946777343752 -230.4921875 69.54296875 C-232.07738211234553 67.96515989947477 -233.6620896602956 66.38686366622227 -235.24658203125 64.808349609375 C-236.3277101687837 63.732246205314084 -237.40973466945238 62.65704256228338 -238.49267578125 61.582763671875 C-244.0354226786028 56.0830164842522 -249.5428729612359 50.59487558987138 -254.595947265625 44.6328125 C-255.55933373950597 43.512463215125024 -256.5614920087944 42.42465779763796 -257.593505859375 41.3671875 C-259.0625 39.8125 -259.0625 39.8125 -261 37 C-259.88629669863553 32.453018245463795 -257.11753647650664 29.57238335457913 -254 26.1875 C-253.113125 25.21167968750001 -252.22625 24.23585937499999 -251.3125 23.23046875 C-249 21 -249 21 -247 21 C-246.30951844733934 19.678842383491826 -245.64710259719362 18.342937247576174 -245 17 C-242.86591837033313 14.391198493157503 -240.48793888588202 12.02643890846258 -238.125 9.625 C-237.4998046875 8.958554687499998 -236.874609375 8.292109374999995 -236.23046875 7.60546875 C-235.92560546875 7.295449218750008 -235.92560546875 7.295449218750008 -234.3828125 5.7265625 C-233.8299658203125 5.1550244140624955 -233.277119140625 4.583486328124991 -232.70751953125 3.99462890625 C-232.1440380859375 3.6664013671874898 -231.580556640625 3.338173828125008 -231 3 C-226.9697387931109 4.070290013177015 -224.21890111738855 7.492519102085254 -221.359375 10.375 C-220.83232971191407 10.900131835937486 -220.30528442382814 11.425263671875001 -219.76226806640625 11.96630859375 C-218.65383071589213 13.073388825109788 -217.54789953566598 14.182983304985697 -216.4443359375 15.294921875 C-214.74893698880086 17.001069750751412 -213.04308390208675 18.696240474409592 -211.3359375 20.390625 C-210.2597744178127 21.46810892057431 -209.1842314914882 22.54621267097508 -208.109375 23.625 C-207.59695251464842 24.13337402343751 -207.08453002929687 24.641748046874994 -206.55657958984375 25.16552734375 C-203 28.77005909433558 -203 28.77005909433558 -203 31 C-202.34 31 -201.68 31 -201 31 C-199.565673828125 32.45556640625 -199.565673828125 32.45556640625 -197.89453125 34.4765625 C-194.0383268078482 39.008473475370124 -189.91720552267384 43.19341771479833 -185.6875 47.375 C-184.91494873046872 48.14376464843747 -184.1423974609375 48.91252929687499 -183.346435546875 49.70458984375 C-180.9000581827372 52.13885765229202 -178.45045859947527 54.5698410575618 -176 57 C-172.76786311921325 60.205361782366026 -169.53917465222202 63.4141407308893 -166.3125 66.625 C-165.94781616210935 66.98553466796875 -165.94781616210935 66.98553466796875 -164.102294921875 68.81005859375 C-160.10958337821802 72.78386481655122 -156.32552100530205 76.86239323375446 -152.64840698242188 81.12896728515625 C-150.1712383903693 83.94069007287715 -147.52605792606573 86.5612577263878 -144.84765625 89.1796875 C-143.7309964272044 90.28372940623336 -142.61446336708593 91.38789953630402 -141.498046875 92.4921875 C-139.76607350733326 94.19914595130263 -138.03250339009668 95.9044284451644 -136.296630859375 97.607421875 C-134.6009981407883 99.27304130365496 -132.91148699129633 100.94467587187876 -131.22265625 102.6171875 C-130.69777114868168 103.12861297607424 -130.17288604736325 103.64003845214842 -129.63209533691406 104.16696166992188 C-128.38304841306365 105.4071782914333 -127.18597483474014 106.69933894591384 -126 108 C-126 108.65999999999997 -126 109.32 -126 110 C-125.731875 110.12374999999997 -125.731875 110.12374999999997 -124.375 110.75 C-121.0120605800584 112.51996811575873 -118.39884586892845 115.05741573411439 -116 118 C-116 118.65999999999997 -116 119.32 -116 120 C-115.34000000000003 120 -114.68 120 -114 120 C-114 120.65999999999997 -114 121.32 -114 122 C-113.34000000000003 122 -112.68 122 -112 122 C-110.55908203124994 123.45336914062506 -110.55908203124994 123.45336914062506 -108.8828125 125.47265625 C-105.0508285769738 129.97439396589067 -101.02485202854359 134.2288126402389 -96.875 138.4375 C-96.18535156249999 139.15615234375002 -95.49570312499998 139.8748046875 -94.78515625 140.615234375 C-94.11097656250001 141.29779296875 -93.43679687500003 141.9803515625 -92.7421875 142.68359375 C-92.14261230468753 143.2977514648437 -91.543037109375 143.91190917968754 -90.92529296875 144.544677734375 C-88.55186851814688 146.33874103009464 -86.96927122850906 146.85542002541695 -84 147 C-82.155029296875 145.95751953125 -82.155029296875 145.95751953125 -80.38671875 144.2578125 C-79.7001318359375 143.608447265625 -79.013544921875 142.95908203124998 -78.30615234375 142.2900390625 C-77.54512207031246 141.53432617187502 -76.78409179687503 140.77861328125 -76 140 C-75.13455566406253 139.154052734375 -74.269111328125 138.30810546875 -73.37744140625 137.4365234375 C-70.50284177116833 134.6015907668151 -67.65464834968634 131.74235060207604 -64.8125 128.875 C-63.83161805520638 127.88908622659665 -62.85049950884519 126.90340778885866 -61.869140625 125.91796875 C-60.06469432399467 124.10544559007116 -58.26189548425873 122.29134218303358 -56.460205078125 120.47607421875 C-54.7516116969 118.75645984221103 -53.03467775955255 117.04510846386688 -51.311279296875 115.34033203125 C-49.00000000000006 113.00000000000006 -49.00000000000006 113.00000000000006 -47 110.5 C-44.83909572892958 107.79886966116203 -42.46188259996882 105.41964107832791 -40 103 C-39.40900512695316 102.41871337890626 -38.81801025390621 101.83742675781252 -38.2091064453125 101.238525390625 C-36.84747075189807 99.90038504995118 -35.4853607492513 98.56272723435666 -34.12286376953125 97.2254638671875 C-30.982759142388034 94.13884911461594 -27.853183835404423 91.04165102985593 -24.72412109375 87.94384765625 C-23.071078342509395 86.31103159744612 -21.41447960855055 84.68180795163283 -19.75439453125 83.05615234375 C-17.352851790067007 80.70304886687404 -14.964392396135224 78.33733015131673 -12.578125 75.96875 C-12.205757141113281 75.60670471191406 -12.205757141113281 75.60670471191406 -10.32135009765625 73.7745361328125 C-9.636837768554699 73.0903259277344 -8.952325439453148 72.40611572265624 -8.2470703125 71.701171875 C-7.642600708007819 71.1055847167969 -7.038131103515639 70.50999755859374 -6.41534423828125 69.8963623046875 C-4.693275665750832 67.58903251260847 -4.2641721791266605 65.85073394729625 -4 63 C-5.203125 60.9921875 -5.203125 60.9921875 -7.25 58.875 C-7.652187499999968 58.44896484374999 -7.652187499999968 58.44896484374999 -9.6875 56.29296875 C-12.383517357187202 53.57150070812577 -15.15995457247891 50.93871737233508 -17.9375 48.30078125 C-18.80858398437499 47.4611181640625 -19.679667968749982 46.621455078124995 -20.5771484375 45.75634765625 C-22.35420689838361 44.04843670215632 -24.149233277179746 42.35902022338331 -25.9619140625 40.68896484375 C-26.78401367187496 39.89828613281247 -27.606113281250032 39.107607421875 -28.453125 38.29296875 C-29.207548828125027 37.58680419921876 -29.961972656249998 36.88063964843752 -30.7392578125 36.153076171875 C-31.155302734375027 35.442561035156245 -31.571347656249998 34.73204589843749 -32 34 C-30.228675724410948 29.25465548112558 -26.014315509907192 25.657277535841445 -22.50390625 22.09765625 C-22.18892936706544 21.776979293823246 -22.18892936706544 21.776979293823246 -20.594955444335938 20.154159545898438 C-19.267209922766824 18.807591684522947 -17.936587745204633 17.463854904852894 -16.603271484375 16.122802734375 C-14.558700146945512 14.058663780365293 -12.53640145340853 11.974190197445438 -10.513671875 9.888671875 C-9.220070781231982 8.582024416457273 -7.9251925290845975 7.276639859318379 -6.62890625 5.97265625 C-6.024622955322229 5.343679351806628 -5.420339660644572 4.714702453613285 -4.7977447509765625 4.0666656494140625 C-3.0686035156248863 2.3557128906248863 -3.0686035156248863 2.3557128906248863 0 0 Z " fill="#000000" transform="translate(454,225)"/>
</svg>
